Coordinates
version=1
nRows=6
nColumns=46
inDegrees=yes

Units are S.I. units (second, meters, Newtons, ...)
Angles are in degrees.

endheader
time	pelvis_tilt	pelvis_list	pelvis_rotation	pelvis_tx	pelvis_ty	pelvis_tz	bb_angle	bb_tx	bb_ty	bb_tz	hip_flexion_r	hip_adduction_r	hip_rotation_r	knee_angle_r	knee_angle_r_beta	ankle_angle_r	subtalar_angle_r	mtp_angle_r	crank_angle_r	hip_flexion_l	hip_adduction_l	hip_rotation_l	knee_angle_l	knee_angle_l_beta	ankle_angle_l	subtalar_angle_l	mtp_angle_l	crank_angle_l	lumbar_extension	lumbar_bending	lumbar_rotation	arm_flex_r	arm_add_r	arm_rot_r	elbow_flex_r	pro_sup_r	wrist_flex_r	wrist_dev_r	arm_flex_l	arm_add_l	arm_rot_l	elbow_flex_l	pro_sup_l	wrist_flex_l	wrist_dev_l
      2.50500000	    -29.08923635	     -1.10825248	     -1.77478085	      0.29404259	      1.29486297	     -0.23361360	      0.00000000	      0.50000000	      0.00000000	      0.25000000	     61.65364322	     -0.01633832	     -2.06517180	     45.68733409	      0.79739441	      7.47233728	     -7.90470771	      0.00000000	      0.00000000	     42.40114478	     -8.01360400	     -2.77136236	     42.77958674	      0.74664464	    -16.22706097	     -2.94487108	      0.00000000	      0.00000000	    -60.42291764	     11.66791291	      9.27348222	     88.51883845	    -11.34197069	     43.86116658	     52.63237572	     43.55039844	      0.00000000	      0.00000000	     76.79518773	    -12.31878710	     24.03000691	     47.32471665	     43.37561491	      0.00000000	      0.00000000
      2.51000000	    -28.90651321	     -0.61609356	     -1.65724084	      0.29581152	      1.29485869	     -0.23293563	      0.00000000	      0.50000000	      0.00000000	      0.25000000	     60.89307806	     -0.34384515	     -1.70985846	     44.74306536	      0.78091381	      7.26812545	     -7.67226647	      0.00000000	      0.00000000	     42.85716946	     -7.49844892	     -2.53554792	     44.14829351	      0.77053308	    -16.47080754	     -3.06399686	      0.00000000	      0.00000000	    -60.54579232	     11.34398721	      8.84435723	     88.41733527	    -11.44844099	     43.84352579	     52.66848664	     43.56096429	      0.00000000	      0.00000000	     76.63597951	    -12.23662815	     24.03634741	     47.36861973	     43.39103961	      0.00000000	      0.00000000
      2.51500000	    -28.92270228	     -0.61073507	     -1.54706022	      0.29720175	      1.29397939	     -0.23238275	      0.00000000	      0.50000000	      0.00000000	      0.25000000	     60.26566914	     -0.34644985	     -1.75506843	     43.67494593	      0.76227161	      6.90428511	     -7.56771547	      0.00000000	      0.00000000	     43.81964338	     -7.42465776	     -2.02939213	     45.99653456	      0.80279097	    -16.54772896	     -3.88201513	      0.00000000	      0.00000000	    -60.56739529	     11.37973908	      8.78864257	     88.19662243	    -11.53760004	     43.79061431	     53.07432157	     43.65763177	      0.00000000	      0.00000000	     76.42904435	    -12.45506955	     23.79541128	     47.71634675	     43.45447192	      0.00000000	      0.00000000
      2.52000000	    -28.92560360	     -0.43846378	     -1.39801033	      0.29878902	      1.29295249	     -0.23185646	      0.00000000	      0.50000000	      0.00000000	      0.25000000	     59.66490664	     -0.49408363	     -1.69622109	     42.69208486	      0.74511745	      6.51359535	     -7.71370047	      0.00000000	      0.00000000	     44.68867793	     -7.17377090	     -1.56957619	     47.72023125	      0.83287516	    -16.57443433	     -4.18297330	      0.00000000	      0.00000000	    -60.56606756	     11.31669953	      8.59801995	     87.83375751	    -11.90124274	     43.60497402	     54.03084262	     43.97653420	      0.00000000	      0.00000000	     75.71203094	    -12.63105167	     23.06422918	     49.00219604	     43.73373462	      0.00000000	      0.00000000
      2.52500000	    -28.71395172	     -0.18936219	     -1.27074243	      0.30054897	      1.29206018	     -0.23134620	      0.00000000	      0.50000000	      0.00000000	      0.25000000	     58.88395737	     -0.71915329	     -1.63625182	     41.84110546	      0.73026505	      6.33514687	     -7.48622147	      0.00000000	      0.00000000	     45.29547421	     -6.87582787	     -1.25979238	     49.41618919	      0.86247521	    -16.65737386	     -4.58692250	      0.00000000	      0.00000000	    -60.68205351	     11.16909590	      8.31469199	     87.56259231	    -11.95831714	     43.57328913	     54.12175645	     44.02093989	      0.00000000	      0.00000000	     75.54449357	    -12.69874860	     23.00122677	     49.04486434	     43.75671823	      0.00000000	      0.00000000
      2.53000000	    -28.52158311	      0.01157277	     -1.13327711	      0.30233457	      1.29083943	     -0.23104588	      0.00000000	      0.50000000	      0.00000000	      0.25000000	     58.13700970	     -0.95848717	     -1.68060362	     41.03170612	      0.71613837	      6.21997955	     -7.25209596	      0.00000000	      0.00000000	     45.95813911	     -6.60208062	     -0.92436068	     51.18037304	      0.89326602	    -16.72999672	     -4.92596486	      0.00000000	      0.00000000	    -60.69966430	     11.12302974	      8.09084510	     87.25114977	    -12.01877512	     43.46113243	     54.34522831	     44.09325204	      0.00000000	      0.00000000	     75.19050667	    -12.76952156	     22.95191705	     49.18882018	     43.80783378	      0.00000000	      0.00000000
